<?xml version="1.0" encoding="UTF-8"?>
<!DOCTYPE svg
PUBLIC "-//W3C//DTD SVG 1.1//EN"
       "http://www.w3.org/Graphics/SVG/1.1/DTD/svg11.dtd">
<svg viewBox="41 -11 1443 767" width="1402px" height="778px" xmlns="http://www.w3.org/2000/svg" version="1.1">
   <line x1="590" y1="102" x2="580" y2="102" style="stroke:#cb0;stroke-width:1;"/>
   <line x1="574" y1="511" x2="584" y2="511" style="stroke:#cb0;stroke-width:1;"/>
   <line x1="580" y1="102" x2="574" y2="511" style="stroke:#cb0;stroke-width:1;"/>
   <line x1="582.5" y1="102" x2="586.03553390593" y2="105.53553390593" style="stroke:#cb0;stroke-width:2;"/>
   <line x1="582.5" y1="102" x2="586.03553390593" y2="98.464466094067" style="stroke:#cb0;stroke-width:2;"/>
   <line x1="579" y1="511" x2="575.46446609407" y2="514.53553390593" style="stroke:#cb0;stroke-width:2;"/>
   <line x1="579" y1="511" x2="575.46446609407" y2="507.46446609407" style="stroke:#cb0;stroke-width:2;"/>
   <line x1="425" y1="487" x2="435" y2="487" style="stroke:#333;stroke-width:1;"/>
   <line x1="574" y1="511" x2="584" y2="511" style="stroke:#333;stroke-width:1;"/>
   <line x1="435" y1="487" x2="574" y2="511" style="stroke:#333;stroke-width:1;"/>
   <line x1="432.5" y1="487" x2="428.96446609407" y2="490.53553390593" style="stroke:#333;stroke-width:2;"/>
   <line x1="432.5" y1="487" x2="428.96446609407" y2="483.46446609407" style="stroke:#333;stroke-width:2;"/>
   <line x1="579" y1="511" x2="575.46446609407" y2="514.53553390593" style="stroke:#333;stroke-width:2;"/>
   <line x1="579" y1="511" x2="575.46446609407" y2="507.46446609407" style="stroke:#333;stroke-width:2;"/>
   <line x1="399" y1="181" x2="409" y2="181" style="stroke:#b0b;stroke-width:1;"/>
   <line x1="580" y1="82" x2="590" y2="82" style="stroke:#b0b;stroke-width:1;"/>
   <line x1="409" y1="181" x2="580" y2="82" style="stroke:#b0b;stroke-width:1;"/>
   <line x1="406.5" y1="181" x2="402.96446609407" y2="184.53553390593" style="stroke:#b0b;stroke-width:2;"/>
   <line x1="406.5" y1="181" x2="402.96446609407" y2="177.46446609407" style="stroke:#b0b;stroke-width:2;"/>
   <line x1="585" y1="82" x2="581.46446609407" y2="85.535533905933" style="stroke:#b0b;stroke-width:2;"/>
   <line x1="585" y1="82" x2="581.46446609407" y2="78.464466094067" style="stroke:#b0b;stroke-width:2;"/>
   <line x1="274" y1="201" x2="264" y2="201" style="stroke:#cb0;stroke-width:1;"/>
   <line x1="191" y1="175" x2="181" y2="175" style="stroke:#cb0;stroke-width:1;"/>
   <line x1="264" y1="201" x2="191" y2="175" style="stroke:#cb0;stroke-width:1;"/>
   <line x1="266.5" y1="201" x2="270.03553390593" y2="204.53553390593" style="stroke:#cb0;stroke-width:2;"/>
   <line x1="266.5" y1="201" x2="270.03553390593" y2="197.46446609407" style="stroke:#cb0;stroke-width:2;"/>
   <line x1="186" y1="175" x2="189.53553390593" y2="178.53553390593" style="stroke:#cb0;stroke-width:2;"/>
   <line x1="186" y1="175" x2="189.53553390593" y2="171.46446609407" style="stroke:#cb0;stroke-width:2;"/>
   <line x1="1081" y1="326" x2="1071" y2="326" style="stroke:#c00;stroke-width:1;"/>
   <line x1="1008" y1="242" x2="998" y2="242" style="stroke:#c00;stroke-width:1;"/>
   <line x1="1071" y1="326" x2="1008" y2="242" style="stroke:#c00;stroke-width:1;"/>
   <line x1="1073.5" y1="326" x2="1077.0355339059" y2="329.53553390593" style="stroke:#c00;stroke-width:2;"/>
   <line x1="1073.5" y1="326" x2="1077.0355339059" y2="322.46446609407" style="stroke:#c00;stroke-width:2;"/>
   <line x1="1003" y1="242" x2="1006.5355339059" y2="245.53553390593" style="stroke:#c00;stroke-width:2;"/>
   <line x1="1003" y1="242" x2="1006.5355339059" y2="238.46446609407" style="stroke:#c00;stroke-width:2;"/>
   <line x1="1206" y1="346" x2="1216" y2="346" style="stroke:#c00;stroke-width:1;"/>
   <line x1="1279" y1="75" x2="1289" y2="75" style="stroke:#c00;stroke-width:1;"/>
   <line x1="1216" y1="346" x2="1279" y2="75" style="stroke:#c00;stroke-width:1;"/>
   <line x1="1213.5" y1="346" x2="1209.9644660941" y2="349.53553390593" style="stroke:#c00;stroke-width:2;"/>
   <line x1="1213.5" y1="346" x2="1209.9644660941" y2="342.46446609407" style="stroke:#c00;stroke-width:2;"/>
   <line x1="1284" y1="75" x2="1280.4644660941" y2="78.535533905933" style="stroke:#c00;stroke-width:2;"/>
   <line x1="1284" y1="75" x2="1280.4644660941" y2="71.464466094067" style="stroke:#c00;stroke-width:2;"/>
   <line x1="1111" y1="566" x2="1101" y2="566" style="stroke:#0b0;stroke-width:1;"/>
   <line x1="1013" y1="494" x2="1003" y2="494" style="stroke:#0b0;stroke-width:1;"/>
   <line x1="1101" y1="566" x2="1013" y2="494" style="stroke:#0b0;stroke-width:1;"/>
   <line x1="1103.5" y1="566" x2="1107.0355339059" y2="569.53553390593" style="stroke:#0b0;stroke-width:2;"/>
   <line x1="1103.5" y1="566" x2="1107.0355339059" y2="562.46446609407" style="stroke:#0b0;stroke-width:2;"/>
   <line x1="1008" y1="494" x2="1011.5355339059" y2="497.53553390593" style="stroke:#0b0;stroke-width:2;"/>
   <line x1="1008" y1="494" x2="1011.5355339059" y2="490.46446609407" style="stroke:#0b0;stroke-width:2;"/>
   <line x1="1236" y1="586" x2="1246" y2="586" style="stroke:#bbb;stroke-width:1;"/>
   <line x1="1279" y1="75" x2="1289" y2="75" style="stroke:#bbb;stroke-width:1;"/>
   <line x1="1246" y1="586" x2="1279" y2="75" style="stroke:#bbb;stroke-width:1;"/>
   <line x1="1243.5" y1="586" x2="1239.9644660941" y2="589.53553390593" style="stroke:#bbb;stroke-width:2;"/>
   <line x1="1243.5" y1="586" x2="1239.9644660941" y2="582.46446609407" style="stroke:#bbb;stroke-width:2;"/>
   <line x1="1284" y1="75" x2="1280.4644660941" y2="78.535533905933" style="stroke:#bbb;stroke-width:2;"/>
   <line x1="1284" y1="75" x2="1280.4644660941" y2="71.464466094067" style="stroke:#bbb;stroke-width:2;"/>
   <line x1="408" y1="69" x2="418" y2="69" style="stroke:#c00;stroke-width:1;"/>
   <line x1="580" y1="82" x2="590" y2="82" style="stroke:#c00;stroke-width:1;"/>
   <line x1="418" y1="69" x2="580" y2="82" style="stroke:#c00;stroke-width:1;"/>
   <line x1="415.5" y1="69" x2="411.96446609407" y2="72.535533905933" style="stroke:#c00;stroke-width:2;"/>
   <line x1="415.5" y1="69" x2="411.96446609407" y2="65.464466094067" style="stroke:#c00;stroke-width:2;"/>
   <line x1="585" y1="82" x2="581.46446609407" y2="85.535533905933" style="stroke:#c00;stroke-width:2;"/>
   <line x1="585" y1="82" x2="581.46446609407" y2="78.464466094067" style="stroke:#c00;stroke-width:2;"/>
   <line x1="283" y1="89" x2="273" y2="89" style="stroke:#333;stroke-width:1;"/>
   <line x1="227" y1="48" x2="217" y2="48" style="stroke:#333;stroke-width:1;"/>
   <line x1="273" y1="89" x2="227" y2="48" style="stroke:#333;stroke-width:1;"/>
   <line x1="275.5" y1="89" x2="279.03553390593" y2="92.535533905933" style="stroke:#333;stroke-width:2;"/>
   <line x1="275.5" y1="89" x2="279.03553390593" y2="85.464466094067" style="stroke:#333;stroke-width:2;"/>
   <line x1="222" y1="48" x2="225.53553390593" y2="51.535533905933" style="stroke:#333;stroke-width:2;"/>
   <line x1="222" y1="48" x2="225.53553390593" y2="44.464466094067" style="stroke:#333;stroke-width:2;"/>
   <line x1="354" y1="340" x2="344" y2="340" style="stroke:#cb0;stroke-width:1;"/>
   <line x1="221" y1="345" x2="211" y2="345" style="stroke:#cb0;stroke-width:1;"/>
   <line x1="344" y1="340" x2="221" y2="345" style="stroke:#cb0;stroke-width:1;"/>
   <line x1="346.5" y1="340" x2="350.03553390593" y2="343.53553390593" style="stroke:#cb0;stroke-width:2;"/>
   <line x1="346.5" y1="340" x2="350.03553390593" y2="336.46446609407" style="stroke:#cb0;stroke-width:2;"/>
   <line x1="216" y1="345" x2="219.53553390593" y2="348.53553390593" style="stroke:#cb0;stroke-width:2;"/>
   <line x1="216" y1="345" x2="219.53553390593" y2="341.46446609407" style="stroke:#cb0;stroke-width:2;"/>
   <line x1="479" y1="320" x2="489" y2="320" style="stroke:#0bf;stroke-width:1;"/>
   <line x1="580" y1="82" x2="590" y2="82" style="stroke:#0bf;stroke-width:1;"/>
   <line x1="489" y1="320" x2="580" y2="82" style="stroke:#0bf;stroke-width:1;"/>
   <line x1="486.5" y1="320" x2="482.96446609407" y2="323.53553390593" style="stroke:#0bf;stroke-width:2;"/>
   <line x1="486.5" y1="320" x2="482.96446609407" y2="316.46446609407" style="stroke:#0bf;stroke-width:2;"/>
   <line x1="585" y1="82" x2="581.46446609407" y2="85.535533905933" style="stroke:#0bf;stroke-width:2;"/>
   <line x1="585" y1="82" x2="581.46446609407" y2="78.464466094067" style="stroke:#0bf;stroke-width:2;"/>
   <line x1="873" y1="262" x2="863" y2="262" style="stroke:#0b0;stroke-width:1;"/>
   <line x1="725" y1="82" x2="715" y2="82" style="stroke:#0b0;stroke-width:1;"/>
   <line x1="863" y1="262" x2="725" y2="82" style="stroke:#0b0;stroke-width:1;"/>
   <line x1="865.5" y1="262" x2="869.03553390593" y2="265.53553390593" style="stroke:#0b0;stroke-width:2;"/>
   <line x1="865.5" y1="262" x2="869.03553390593" y2="258.46446609407" style="stroke:#0b0;stroke-width:2;"/>
   <line x1="720" y1="82" x2="723.53553390593" y2="85.535533905933" style="stroke:#0b0;stroke-width:2;"/>
   <line x1="720" y1="82" x2="723.53553390593" y2="78.464466094067" style="stroke:#0b0;stroke-width:2;"/>
   <line x1="878" y1="514" x2="868" y2="514" style="stroke:#b0b;stroke-width:1;"/>
   <line x1="725" y1="82" x2="715" y2="82" style="stroke:#b0b;stroke-width:1;"/>
   <line x1="868" y1="514" x2="725" y2="82" style="stroke:#b0b;stroke-width:1;"/>
   <line x1="870.5" y1="514" x2="874.03553390593" y2="517.53553390593" style="stroke:#b0b;stroke-width:2;"/>
   <line x1="870.5" y1="514" x2="874.03553390593" y2="510.46446609407" style="stroke:#b0b;stroke-width:2;"/>
   <line x1="720" y1="82" x2="723.53553390593" y2="85.535533905933" style="stroke:#b0b;stroke-width:2;"/>
   <line x1="720" y1="82" x2="723.53553390593" y2="78.464466094067" style="stroke:#b0b;stroke-width:2;"/>
   <line x1="883" y1="54" x2="873" y2="54" style="stroke:#0bf;stroke-width:1;"/>
   <line x1="725" y1="82" x2="715" y2="82" style="stroke:#0bf;stroke-width:1;"/>
   <line x1="873" y1="54" x2="725" y2="82" style="stroke:#0bf;stroke-width:1;"/>
   <line x1="875.5" y1="54" x2="879.03553390593" y2="57.535533905933" style="stroke:#0bf;stroke-width:2;"/>
   <line x1="875.5" y1="54" x2="879.03553390593" y2="50.464466094067" style="stroke:#0bf;stroke-width:2;"/>
   <line x1="720" y1="82" x2="723.53553390593" y2="85.535533905933" style="stroke:#0bf;stroke-width:2;"/>
   <line x1="720" y1="82" x2="723.53553390593" y2="78.464466094067" style="stroke:#0bf;stroke-width:2;"/>
   <line x1="1008" y1="74" x2="1018" y2="74" style="stroke:#c00;stroke-width:1;"/>
   <line x1="1279" y1="75" x2="1289" y2="75" style="stroke:#c00;stroke-width:1;"/>
   <line x1="1018" y1="74" x2="1279" y2="75" style="stroke:#c00;stroke-width:1;"/>
   <line x1="1015.5" y1="74" x2="1011.9644660941" y2="77.535533905933" style="stroke:#c00;stroke-width:2;"/>
   <line x1="1015.5" y1="74" x2="1011.9644660941" y2="70.464466094067" style="stroke:#c00;stroke-width:2;"/>
   <line x1="1284" y1="75" x2="1280.4644660941" y2="78.535533905933" style="stroke:#c00;stroke-width:2;"/>
   <line x1="1284" y1="75" x2="1280.4644660941" y2="71.464466094067" style="stroke:#c00;stroke-width:2;"/>
   <line x1="854" y1="682" x2="844" y2="682" style="stroke:#b0b;stroke-width:1;"/>
   <line x1="719" y1="511" x2="709" y2="511" style="stroke:#b0b;stroke-width:1;"/>
   <line x1="844" y1="682" x2="719" y2="511" style="stroke:#b0b;stroke-width:1;"/>
   <line x1="846.5" y1="682" x2="850.03553390593" y2="685.53553390593" style="stroke:#b0b;stroke-width:2;"/>
   <line x1="846.5" y1="682" x2="850.03553390593" y2="678.46446609407" style="stroke:#b0b;stroke-width:2;"/>
   <line x1="714" y1="511" x2="717.53553390593" y2="514.53553390593" style="stroke:#b0b;stroke-width:2;"/>
   <line x1="714" y1="511" x2="717.53553390593" y2="507.46446609407" style="stroke:#b0b;stroke-width:2;"/>
   <line x1="979" y1="742" x2="989" y2="742" style="stroke:#0bf;stroke-width:1;"/>
   <line x1="1279" y1="75" x2="1289" y2="75" style="stroke:#0bf;stroke-width:1;"/>
   <line x1="989" y1="742" x2="1279" y2="75" style="stroke:#0bf;stroke-width:1;"/>
   <line x1="986.5" y1="742" x2="982.96446609407" y2="745.53553390593" style="stroke:#0bf;stroke-width:2;"/>
   <line x1="986.5" y1="742" x2="982.96446609407" y2="738.46446609407" style="stroke:#0bf;stroke-width:2;"/>
   <line x1="1284" y1="75" x2="1280.4644660941" y2="78.535533905933" style="stroke:#0bf;stroke-width:2;"/>
   <line x1="1284" y1="75" x2="1280.4644660941" y2="71.464466094067" style="stroke:#0bf;stroke-width:2;"/>
   <line x1="1303" y1="601" x2="1293" y2="601" style="stroke:#cb0;stroke-width:1;"/>
   <line x1="1279" y1="75" x2="1289" y2="75" style="stroke:#cb0;stroke-width:1;"/>
   <line x1="1293" y1="601" x2="1279" y2="75" style="stroke:#cb0;stroke-width:1;"/>
   <line x1="1295.5" y1="601" x2="1299.0355339059" y2="604.53553390593" style="stroke:#cb0;stroke-width:2;"/>
   <line x1="1295.5" y1="601" x2="1299.0355339059" y2="597.46446609407" style="stroke:#cb0;stroke-width:2;"/>
   <line x1="1284" y1="75" x2="1280.4644660941" y2="78.535533905933" style="stroke:#cb0;stroke-width:2;"/>
   <line x1="1284" y1="75" x2="1280.4644660941" y2="71.464466094067" style="stroke:#cb0;stroke-width:2;"/>
   <line x1="1294" y1="406" x2="1284" y2="406" style="stroke:#0bf;stroke-width:1;"/>
   <line x1="1279" y1="75" x2="1289" y2="75" style="stroke:#0bf;stroke-width:1;"/>
   <line x1="1284" y1="406" x2="1279" y2="75" style="stroke:#0bf;stroke-width:1;"/>
   <line x1="1286.5" y1="406" x2="1290.0355339059" y2="409.53553390593" style="stroke:#0bf;stroke-width:2;"/>
   <line x1="1286.5" y1="406" x2="1290.0355339059" y2="402.46446609407" style="stroke:#0bf;stroke-width:2;"/>
   <line x1="1284" y1="75" x2="1280.4644660941" y2="78.535533905933" style="stroke:#0bf;stroke-width:2;"/>
   <line x1="1284" y1="75" x2="1280.4644660941" y2="71.464466094067" style="stroke:#0bf;stroke-width:2;"/>
   <line x1="1289" y1="95" x2="1279" y2="95" style="stroke:#0b0;stroke-width:1;"/>
   <line x1="719" y1="511" x2="709" y2="511" style="stroke:#0b0;stroke-width:1;"/>
   <line x1="1279" y1="95" x2="719" y2="511" style="stroke:#0b0;stroke-width:1;"/>
   <line x1="1281.5" y1="95" x2="1285.0355339059" y2="98.535533905933" style="stroke:#0b0;stroke-width:2;"/>
   <line x1="1281.5" y1="95" x2="1285.0355339059" y2="91.464466094067" style="stroke:#0b0;stroke-width:2;"/>
   <line x1="714" y1="511" x2="717.53553390593" y2="514.53553390593" style="stroke:#0b0;stroke-width:2;"/>
   <line x1="714" y1="511" x2="717.53553390593" y2="507.46446609407" style="stroke:#0b0;stroke-width:2;"/>
   <rect width="125" height="20" x="93" y="471" style="fill:#007;stroke:black;"/>
   <text width="125" height="20" x="98" y="485" style="fill:#fff;" font-family="Arial" font-size="16px"> admin</text>
   <rect width="125" height="20" x="93" y="491" style="fill:#aea;stroke:black;"/>
   <text width="125" height="20" x="98" y="505" style="fill:black;" font-family="Arial" font-size="16px">adminID</text>
   <rect width="125" height="20" x="93" y="511" style="fill:none;stroke:black;"/>
   <text width="125" height="20" x="98" y="525" style="fill:black;" font-family="Arial" font-size="16px">name</text>
   <rect width="125" height="20" x="93" y="531" style="fill:none;stroke:black;"/>
   <text width="125" height="20" x="98" y="545" style="fill:black;" font-family="Arial" font-size="16px">surname</text>
   <rect width="125" height="20" x="93" y="551" style="fill:none;stroke:black;"/>
   <text width="125" height="20" x="98" y="565" style="fill:black;" font-family="Arial" font-size="16px">email</text>
   <rect width="125" height="20" x="93" y="571" style="fill:none;stroke:black;"/>
   <text width="125" height="20" x="98" y="585" style="fill:black;" font-family="Arial" font-size="16px">username</text>
   <rect width="125" height="20" x="93" y="591" style="fill:none;stroke:black;"/>
   <text width="125" height="20" x="98" y="605" style="fill:black;" font-family="Arial" font-size="16px">password</text>
   <rect width="125" height="20" x="86" y="315" style="fill:#007;stroke:black;"/>
   <text width="125" height="20" x="91" y="329" style="fill:#fff;" font-family="Arial" font-size="16px"> author</text>
   <rect width="125" height="20" x="86" y="335" style="fill:#aea;stroke:black;"/>
   <text width="125" height="20" x="91" y="349" style="fill:black;" font-family="Arial" font-size="16px">authorID</text>
   <rect width="125" height="20" x="86" y="355" style="fill:none;stroke:black;"/>
   <text width="125" height="20" x="91" y="369" style="fill:black;" font-family="Arial" font-size="16px">name</text>
   <rect width="125" height="20" x="590" y="52" style="fill:#007;stroke:black;"/>
   <text width="125" height="20" x="595" y="66" style="fill:#fff;" font-family="Arial" font-size="16px"> books</text>
   <rect width="125" height="20" x="590" y="72" style="fill:#aea;stroke:black;"/>
   <text width="125" height="20" x="595" y="86" style="fill:black;" font-family="Arial" font-size="16px">ISBN</text>
   <rect width="125" height="20" x="590" y="92" style="fill:#aea;stroke:black;"/>
   <text width="125" height="20" x="595" y="106" style="fill:black;" font-family="Arial" font-size="16px">schoolID</text>
   <rect width="125" height="20" x="590" y="112" style="fill:none;stroke:black;"/>
   <text width="125" height="20" x="595" y="126" style="fill:black;" font-family="Arial" font-size="16px">title</text>
   <rect width="125" height="20" x="590" y="132" style="fill:none;stroke:black;"/>
   <text width="125" height="20" x="595" y="146" style="fill:black;" font-family="Arial" font-size="16px">publisher</text>
   <rect width="125" height="20" x="590" y="152" style="fill:none;stroke:black;"/>
   <text width="125" height="20" x="595" y="166" style="fill:black;" font-family="Arial" font-size="16px">num_pages</text>
   <rect width="125" height="20" x="590" y="172" style="fill:none;stroke:black;"/>
   <text width="125" height="20" x="595" y="186" style="fill:black;" font-family="Arial" font-size="16px">lang</text>
   <rect width="125" height="20" x="590" y="192" style="fill:none;stroke:black;"/>
   <text width="125" height="20" x="595" y="206" style="fill:black;" font-family="Arial" font-size="16px">copies</text>
   <rect width="125" height="20" x="590" y="212" style="fill:none;stroke:black;"/>
   <text width="125" height="20" x="595" y="226" style="fill:black;" font-family="Arial" font-size="16px">image</text>
   <rect width="125" height="20" x="590" y="232" style="fill:none;stroke:black;"/>
   <text width="125" height="20" x="595" y="246" style="fill:black;" font-family="Arial" font-size="16px">summary</text>
   <rect width="125" height="20" x="590" y="252" style="fill:none;stroke:black;"/>
   <text width="125" height="20" x="595" y="266" style="fill:black;" font-family="Arial" font-size="16px">available_copies</text>
   <rect width="125" height="20" x="300" y="437" style="fill:#007;stroke:black;"/>
   <text width="125" height="20" x="305" y="451" style="fill:#fff;" font-family="Arial" font-size="16px"> handler</text>
   <rect width="125" height="20" x="300" y="457" style="fill:#aea;stroke:black;"/>
   <text width="125" height="20" x="305" y="471" style="fill:black;" font-family="Arial" font-size="16px">handlerID</text>
   <rect width="125" height="20" x="300" y="477" style="fill:none;stroke:black;"/>
   <text width="125" height="20" x="305" y="491" style="fill:black;" font-family="Arial" font-size="16px">schoolID</text>
   <rect width="125" height="20" x="300" y="497" style="fill:none;stroke:black;"/>
   <text width="125" height="20" x="305" y="511" style="fill:black;" font-family="Arial" font-size="16px">firstname</text>
   <rect width="125" height="20" x="300" y="517" style="fill:none;stroke:black;"/>
   <text width="125" height="20" x="305" y="531" style="fill:black;" font-family="Arial" font-size="16px">lastname</text>
   <rect width="125" height="20" x="300" y="537" style="fill:none;stroke:black;"/>
   <text width="125" height="20" x="305" y="551" style="fill:black;" font-family="Arial" font-size="16px">username</text>
   <rect width="125" height="20" x="300" y="557" style="fill:none;stroke:black;"/>
   <text width="125" height="20" x="305" y="571" style="fill:black;" font-family="Arial" font-size="16px">password</text>
   <rect width="125" height="20" x="300" y="577" style="fill:none;stroke:black;"/>
   <text width="125" height="20" x="305" y="591" style="fill:black;" font-family="Arial" font-size="16px">email</text>
   <rect width="125" height="20" x="300" y="597" style="fill:none;stroke:black;"/>
   <text width="125" height="20" x="305" y="611" style="fill:black;" font-family="Arial" font-size="16px">active</text>
   <rect width="125" height="20" x="274" y="151" style="fill:#007;stroke:black;"/>
   <text width="125" height="20" x="279" y="165" style="fill:#fff;" font-family="Arial" font-size="16px"> has_keywords</text>
   <rect width="125" height="20" x="274" y="171" style="fill:#aea;stroke:black;"/>
   <text width="125" height="20" x="279" y="185" style="fill:black;" font-family="Arial" font-size="16px">ISBN</text>
   <rect width="125" height="20" x="274" y="191" style="fill:#aea;stroke:black;"/>
   <text width="125" height="20" x="279" y="205" style="fill:black;" font-family="Arial" font-size="16px">keyword_id</text>
   <rect width="125" height="20" x="1081" y="296" style="fill:#007;stroke:black;"/>
   <text width="125" height="20" x="1086" y="310" style="fill:#fff;" font-family="Arial" font-size="16px"> has_loan</text>
   <rect width="125" height="20" x="1081" y="316" style="fill:#aea;stroke:black;"/>
   <text width="125" height="20" x="1086" y="330" style="fill:black;" font-family="Arial" font-size="16px">loanID</text>
   <rect width="125" height="20" x="1081" y="336" style="fill:#aea;stroke:black;"/>
   <text width="125" height="20" x="1086" y="350" style="fill:black;" font-family="Arial" font-size="16px">userID</text>
   <rect width="125" height="20" x="1111" y="536" style="fill:#007;stroke:black;"/>
   <text width="125" height="20" x="1116" y="550" style="fill:#fff;" font-family="Arial" font-size="16px"> has_reserv</text>
   <rect width="125" height="20" x="1111" y="556" style="fill:#aea;stroke:black;"/>
   <text width="125" height="20" x="1116" y="570" style="fill:black;" font-family="Arial" font-size="16px">resID</text>
   <rect width="125" height="20" x="1111" y="576" style="fill:#aea;stroke:black;"/>
   <text width="125" height="20" x="1116" y="590" style="fill:black;" font-family="Arial" font-size="16px">userID</text>
   <rect width="125" height="20" x="283" y="39" style="fill:#007;stroke:black;"/>
   <text width="125" height="20" x="288" y="53" style="fill:#fff;" font-family="Arial" font-size="16px"> has_subject</text>
   <rect width="125" height="20" x="283" y="59" style="fill:#aea;stroke:black;"/>
   <text width="125" height="20" x="288" y="73" style="fill:black;" font-family="Arial" font-size="16px">ISBN</text>
   <rect width="125" height="20" x="283" y="79" style="fill:#aea;stroke:black;"/>
   <text width="125" height="20" x="288" y="93" style="fill:black;" font-family="Arial" font-size="16px">subID</text>
   <rect width="125" height="20" x="354" y="290" style="fill:#007;stroke:black;"/>
   <text width="125" height="20" x="359" y="304" style="fill:#fff;" font-family="Arial" font-size="16px"> is_author</text>
   <rect width="125" height="20" x="354" y="310" style="fill:#aea;stroke:black;"/>
   <text width="125" height="20" x="359" y="324" style="fill:black;" font-family="Arial" font-size="16px">ISBN</text>
   <rect width="125" height="20" x="354" y="330" style="fill:#aea;stroke:black;"/>
   <text width="125" height="20" x="359" y="344" style="fill:black;" font-family="Arial" font-size="16px">authorID</text>
   <rect width="125" height="20" x="56" y="145" style="fill:#007;stroke:black;"/>
   <text width="125" height="20" x="61" y="159" style="fill:#fff;" font-family="Arial" font-size="16px"> keywords</text>
   <rect width="125" height="20" x="56" y="165" style="fill:#aea;stroke:black;"/>
   <text width="125" height="20" x="61" y="179" style="fill:black;" font-family="Arial" font-size="16px">keyword_ID</text>
   <rect width="125" height="20" x="56" y="185" style="fill:none;stroke:black;"/>
   <text width="125" height="20" x="61" y="199" style="fill:black;" font-family="Arial" font-size="16px">keyword</text>
   <rect width="125" height="20" x="873" y="212" style="fill:#007;stroke:black;"/>
   <text width="125" height="20" x="878" y="226" style="fill:#fff;" font-family="Arial" font-size="16px"> loans</text>
   <rect width="125" height="20" x="873" y="232" style="fill:#aea;stroke:black;"/>
   <text width="125" height="20" x="878" y="246" style="fill:black;" font-family="Arial" font-size="16px">loanID</text>
   <rect width="125" height="20" x="873" y="252" style="fill:none;stroke:black;"/>
   <text width="125" height="20" x="878" y="266" style="fill:black;" font-family="Arial" font-size="16px">ISBN</text>
   <rect width="125" height="20" x="873" y="272" style="fill:none;stroke:black;"/>
   <text width="125" height="20" x="878" y="286" style="fill:black;" font-family="Arial" font-size="16px">loan_date</text>
   <rect width="125" height="20" x="873" y="292" style="fill:none;stroke:black;"/>
   <text width="125" height="20" x="878" y="306" style="fill:black;" font-family="Arial" font-size="16px">end_date</text>
   <rect width="125" height="20" x="873" y="312" style="fill:none;stroke:black;"/>
   <text width="125" height="20" x="878" y="326" style="fill:black;" font-family="Arial" font-size="16px">active</text>
   <rect width="125" height="20" x="873" y="332" style="fill:none;stroke:black;"/>
   <text width="125" height="20" x="878" y="346" style="fill:black;" font-family="Arial" font-size="16px">pending</text>
   <rect width="125" height="20" x="878" y="464" style="fill:#007;stroke:black;"/>
   <text width="125" height="20" x="883" y="478" style="fill:#fff;" font-family="Arial" font-size="16px"> reservations</text>
   <rect width="125" height="20" x="878" y="484" style="fill:#aea;stroke:black;"/>
   <text width="125" height="20" x="883" y="498" style="fill:black;" font-family="Arial" font-size="16px">resID</text>
   <rect width="125" height="20" x="878" y="504" style="fill:none;stroke:black;"/>
   <text width="125" height="20" x="883" y="518" style="fill:black;" font-family="Arial" font-size="16px">ISBN</text>
   <rect width="125" height="20" x="878" y="524" style="fill:none;stroke:black;"/>
   <text width="125" height="20" x="883" y="538" style="fill:black;" font-family="Arial" font-size="16px">res_date</text>
   <rect width="125" height="20" x="878" y="544" style="fill:none;stroke:black;"/>
   <text width="125" height="20" x="883" y="558" style="fill:black;" font-family="Arial" font-size="16px">end_date</text>
   <rect width="125" height="20" x="883" y="4" style="fill:#007;stroke:black;"/>
   <text width="125" height="20" x="888" y="18" style="fill:#fff;" font-family="Arial" font-size="16px"> review</text>
   <rect width="125" height="20" x="883" y="24" style="fill:#aea;stroke:black;"/>
   <text width="125" height="20" x="888" y="38" style="fill:black;" font-family="Arial" font-size="16px">review_ID</text>
   <rect width="125" height="20" x="883" y="44" style="fill:none;stroke:black;"/>
   <text width="125" height="20" x="888" y="58" style="fill:black;" font-family="Arial" font-size="16px">ISBN</text>
   <rect width="125" height="20" x="883" y="64" style="fill:none;stroke:black;"/>
   <text width="125" height="20" x="888" y="78" style="fill:black;" font-family="Arial" font-size="16px">userID</text>
   <rect width="125" height="20" x="883" y="84" style="fill:none;stroke:black;"/>
   <text width="125" height="20" x="888" y="98" style="fill:black;" font-family="Arial" font-size="16px">date</text>
   <rect width="125" height="20" x="883" y="104" style="fill:none;stroke:black;"/>
   <text width="125" height="20" x="888" y="118" style="fill:black;" font-family="Arial" font-size="16px">rating</text>
   <rect width="125" height="20" x="883" y="124" style="fill:none;stroke:black;"/>
   <text width="125" height="20" x="888" y="138" style="fill:black;" font-family="Arial" font-size="16px">comments</text>
   <rect width="125" height="20" x="584" y="481" style="fill:#007;stroke:black;"/>
   <text width="125" height="20" x="589" y="495" style="fill:#fff;" font-family="Arial" font-size="16px"> schools</text>
   <rect width="125" height="20" x="584" y="501" style="fill:#aea;stroke:black;"/>
   <text width="125" height="20" x="589" y="515" style="fill:black;" font-family="Arial" font-size="16px">schoolID</text>
   <rect width="125" height="20" x="584" y="521" style="fill:none;stroke:black;"/>
   <text width="125" height="20" x="589" y="535" style="fill:black;" font-family="Arial" font-size="16px">name</text>
   <rect width="125" height="20" x="584" y="541" style="fill:none;stroke:black;"/>
   <text width="125" height="20" x="589" y="555" style="fill:black;" font-family="Arial" font-size="16px">email</text>
   <rect width="125" height="20" x="584" y="561" style="fill:none;stroke:black;"/>
   <text width="125" height="20" x="589" y="575" style="fill:black;" font-family="Arial" font-size="16px">phone</text>
   <rect width="125" height="20" x="584" y="581" style="fill:none;stroke:black;"/>
   <text width="125" height="20" x="589" y="595" style="fill:black;" font-family="Arial" font-size="16px">str_name</text>
   <rect width="125" height="20" x="584" y="601" style="fill:none;stroke:black;"/>
   <text width="125" height="20" x="589" y="615" style="fill:black;" font-family="Arial" font-size="16px">str_number</text>
   <rect width="125" height="20" x="584" y="621" style="fill:none;stroke:black;"/>
   <text width="125" height="20" x="589" y="635" style="fill:black;" font-family="Arial" font-size="16px">zip_code</text>
   <rect width="125" height="20" x="584" y="641" style="fill:none;stroke:black;"/>
   <text width="125" height="20" x="589" y="655" style="fill:black;" font-family="Arial" font-size="16px">city</text>
   <rect width="125" height="20" x="854" y="632" style="fill:#007;stroke:black;"/>
   <text width="125" height="20" x="859" y="646" style="fill:#fff;" font-family="Arial" font-size="16px"> school_director</text>
   <rect width="125" height="20" x="854" y="652" style="fill:#aea;stroke:black;"/>
   <text width="125" height="20" x="859" y="666" style="fill:black;" font-family="Arial" font-size="16px">directorID</text>
   <rect width="125" height="20" x="854" y="672" style="fill:none;stroke:black;"/>
   <text width="125" height="20" x="859" y="686" style="fill:black;" font-family="Arial" font-size="16px">schoolID</text>
   <rect width="125" height="20" x="854" y="692" style="fill:none;stroke:black;"/>
   <text width="125" height="20" x="859" y="706" style="fill:black;" font-family="Arial" font-size="16px">name</text>
   <rect width="125" height="20" x="854" y="712" style="fill:none;stroke:black;"/>
   <text width="125" height="20" x="859" y="726" style="fill:black;" font-family="Arial" font-size="16px">surname</text>
   <rect width="125" height="20" x="854" y="732" style="fill:none;stroke:black;"/>
   <text width="125" height="20" x="859" y="746" style="fill:black;" font-family="Arial" font-size="16px">userID</text>
   <rect width="125" height="20" x="1303" y="571" style="fill:#007;stroke:black;"/>
   <text width="125" height="20" x="1308" y="585" style="fill:#fff;" font-family="Arial" font-size="16px"> student</text>
   <rect width="125" height="20" x="1303" y="591" style="fill:#aea;stroke:black;"/>
   <text width="125" height="20" x="1308" y="605" style="fill:black;" font-family="Arial" font-size="16px">userID</text>
   <rect width="125" height="20" x="1303" y="611" style="fill:none;stroke:black;"/>
   <text width="125" height="20" x="1308" y="625" style="fill:black;" font-family="Arial" font-size="16px">num_loans</text>
   <rect width="125" height="20" x="1303" y="631" style="fill:none;stroke:black;"/>
   <text width="125" height="20" x="1308" y="645" style="fill:black;" font-family="Arial" font-size="16px">num_reserv</text>
   <rect width="125" height="20" x="1303" y="651" style="fill:none;stroke:black;"/>
   <text width="125" height="20" x="1308" y="665" style="fill:black;" font-family="Arial" font-size="16px">can_loan</text>
   <rect width="125" height="20" x="1303" y="671" style="fill:none;stroke:black;"/>
   <text width="125" height="20" x="1308" y="685" style="fill:black;" font-family="Arial" font-size="16px">can_reserve</text>
   <rect width="125" height="20" x="92" y="18" style="fill:#007;stroke:black;"/>
   <text width="125" height="20" x="97" y="32" style="fill:#fff;" font-family="Arial" font-size="16px"> subjects</text>
   <rect width="125" height="20" x="92" y="38" style="fill:#aea;stroke:black;"/>
   <text width="125" height="20" x="97" y="52" style="fill:black;" font-family="Arial" font-size="16px">subID</text>
   <rect width="125" height="20" x="92" y="58" style="fill:none;stroke:black;"/>
   <text width="125" height="20" x="97" y="72" style="fill:black;" font-family="Arial" font-size="16px">subject</text>
   <rect width="125" height="20" x="1294" y="376" style="fill:#007;stroke:black;"/>
   <text width="125" height="20" x="1299" y="390" style="fill:#fff;" font-family="Arial" font-size="16px"> teacher</text>
   <rect width="125" height="20" x="1294" y="396" style="fill:#aea;stroke:black;"/>
   <text width="125" height="20" x="1299" y="410" style="fill:black;" font-family="Arial" font-size="16px">userID</text>
   <rect width="125" height="20" x="1294" y="416" style="fill:none;stroke:black;"/>
   <text width="125" height="20" x="1299" y="430" style="fill:black;" font-family="Arial" font-size="16px">num_loans</text>
   <rect width="125" height="20" x="1294" y="436" style="fill:none;stroke:black;"/>
   <text width="125" height="20" x="1299" y="450" style="fill:black;" font-family="Arial" font-size="16px">num_reserv</text>
   <rect width="125" height="20" x="1294" y="456" style="fill:none;stroke:black;"/>
   <text width="125" height="20" x="1299" y="470" style="fill:black;" font-family="Arial" font-size="16px">can_loan</text>
   <rect width="125" height="20" x="1294" y="476" style="fill:none;stroke:black;"/>
   <text width="125" height="20" x="1299" y="490" style="fill:black;" font-family="Arial" font-size="16px">can_reserve</text>
   <rect width="125" height="20" x="1289" y="45" style="fill:#007;stroke:black;"/>
   <text width="125" height="20" x="1294" y="59" style="fill:#fff;" font-family="Arial" font-size="16px"> users</text>
   <rect width="125" height="20" x="1289" y="65" style="fill:#aea;stroke:black;"/>
   <text width="125" height="20" x="1294" y="79" style="fill:black;" font-family="Arial" font-size="16px">userID</text>
   <rect width="125" height="20" x="1289" y="85" style="fill:none;stroke:black;"/>
   <text width="125" height="20" x="1294" y="99" style="fill:black;" font-family="Arial" font-size="16px">schoolID</text>
   <rect width="125" height="20" x="1289" y="105" style="fill:none;stroke:black;"/>
   <text width="125" height="20" x="1294" y="119" style="fill:black;" font-family="Arial" font-size="16px">name</text>
   <rect width="125" height="20" x="1289" y="125" style="fill:none;stroke:black;"/>
   <text width="125" height="20" x="1294" y="139" style="fill:black;" font-family="Arial" font-size="16px">surname</text>
   <rect width="125" height="20" x="1289" y="145" style="fill:none;stroke:black;"/>
   <text width="125" height="20" x="1294" y="159" style="fill:black;" font-family="Arial" font-size="16px">email</text>
   <rect width="125" height="20" x="1289" y="165" style="fill:none;stroke:black;"/>
   <text width="125" height="20" x="1294" y="179" style="fill:black;" font-family="Arial" font-size="16px">username</text>
   <rect width="125" height="20" x="1289" y="185" style="fill:none;stroke:black;"/>
   <text width="125" height="20" x="1294" y="199" style="fill:black;" font-family="Arial" font-size="16px">password</text>
   <rect width="125" height="20" x="1289" y="205" style="fill:none;stroke:black;"/>
   <text width="125" height="20" x="1294" y="219" style="fill:black;" font-family="Arial" font-size="16px">active</text>
   <rect width="125" height="20" x="1289" y="225" style="fill:none;stroke:black;"/>
   <text width="125" height="20" x="1294" y="239" style="fill:black;" font-family="Arial" font-size="16px">birthdate</text>
</svg>
